<svg width="190" height="34" viewBox="0 0 190 34" fill="none" xmlns="http://www.w3.org/2000/svg">
    <path
        d="M64.958 33.8359V26.872H67.7128C68.3205 26.872 68.8325 27.07 69.249 27.466C69.6655 27.862 69.8737 28.3467 69.8737 28.9202C69.8737 29.4869 69.6655 29.9716 69.249 30.3744C68.8325 30.7772 68.3205 30.9786 67.7128 30.9786H65.9207V33.8359H64.958ZM65.9207 30.0979H67.508C67.9723 30.0979 68.3171 29.9853 68.5424 29.76C68.7745 29.5278 68.8906 29.2479 68.8906 28.9202C68.8906 28.5925 68.7779 28.316 68.5526 28.0907C68.3341 27.8654 67.9962 27.7527 67.5388 27.7527H65.9207V30.0979Z"
        fill="white" />
    <path
        d="M77.9554 32.9039C77.2727 33.5935 76.4329 33.9383 75.4361 33.9383C74.4393 33.9383 73.5996 33.5935 72.9168 32.9039C72.2341 32.2144 71.8927 31.3644 71.8927 30.3539C71.8927 29.3435 72.2341 28.4935 72.9168 27.804C73.5996 27.1144 74.4393 26.7696 75.4361 26.7696C76.4329 26.7696 77.2727 27.1144 77.9554 27.804C78.6381 28.4935 78.9795 29.3435 78.9795 30.3539C78.9795 31.3644 78.6381 32.2144 77.9554 32.9039ZM73.6132 28.4491C73.1216 28.9612 72.8759 29.5961 72.8759 30.3539C72.8759 31.1118 73.1216 31.7501 73.6132 32.269C74.1048 32.7811 74.7124 33.0371 75.4361 33.0371C76.1598 33.0371 76.7674 32.7811 77.259 32.269C77.7506 31.7501 77.9964 31.1118 77.9964 30.3539C77.9964 29.5961 77.7506 28.9612 77.259 28.4491C76.7674 27.9303 76.1598 27.6708 75.4361 27.6708C74.7124 27.6708 74.1048 27.9303 73.6132 28.4491Z"
        fill="white" />
    <path
        d="M82.6706 33.8359L80.4893 26.872H81.5134L82.9266 31.757C82.9949 32.0027 83.0598 32.3031 83.1212 32.6582H83.1417C83.1895 32.3509 83.2509 32.0505 83.326 31.757L84.5857 26.872H85.6303L86.8899 31.757C86.965 32.0505 87.0265 32.3509 87.0743 32.6582H87.0947C87.1562 32.3031 87.221 32.0027 87.2893 31.757L88.7026 26.872H89.7267L87.5453 33.8359H86.6237L85.2514 28.6027C85.1899 28.3843 85.1455 28.1317 85.1182 27.8449H85.0977C85.0704 28.1317 85.026 28.3843 84.9646 28.6027L83.5923 33.8359H82.6706Z"
        fill="white" />
    <path
        d="M91.998 33.8359V26.872H96.207V27.7527H92.9606V29.8726H96.0637V30.7533H92.9606V32.9552H96.207V33.8359H91.998Z"
        fill="white" />
    <path
        d="M98.8911 33.8359V26.872H101.646C102.254 26.872 102.766 27.07 103.182 27.466C103.599 27.8552 103.807 28.3262 103.807 28.8793C103.807 29.4254 103.599 29.8931 103.182 30.2823C102.766 30.6646 102.254 30.8558 101.646 30.8558H101.031V30.8762C101.113 30.9172 101.182 30.965 101.236 31.0196L104.073 33.8359H102.742L99.864 30.8558H99.8537V33.8359H98.8911ZM99.8537 30.016H101.441C101.905 30.016 102.25 29.9068 102.475 29.6883C102.708 29.463 102.824 29.1933 102.824 28.8793C102.824 28.572 102.711 28.3092 102.486 28.0907C102.26 27.8654 101.922 27.7527 101.472 27.7527H99.8537V30.016Z"
        fill="white" />
    <path
        d="M106.364 33.8359V26.872H110.573V27.7527H107.327V29.8726H110.43V30.7533H107.327V32.9552H110.573V33.8359H106.364Z"
        fill="white" />
    <path
        d="M113.257 33.8359V26.872H115.367C116.405 26.872 117.262 27.2066 117.937 27.8756C118.613 28.5379 118.951 29.364 118.951 30.3539C118.951 31.3439 118.613 32.1734 117.937 32.8425C117.262 33.5047 116.405 33.8359 115.367 33.8359H113.257ZM114.22 32.9449L115.367 32.9552C116.104 32.962 116.722 32.7128 117.221 32.2076C117.719 31.7023 117.968 31.0845 117.968 30.3539C117.968 29.6234 117.719 29.009 117.221 28.5106C116.722 28.0054 116.104 27.7527 115.367 27.7527H114.22V32.9449Z"
        fill="white" />
    <path
        d="M125.203 33.8359V26.872H127.374C128.16 26.872 128.74 27.0427 129.115 27.3841C129.498 27.7254 129.689 28.1931 129.689 28.7871C129.689 29.1762 129.573 29.5005 129.341 29.76C129.115 30.0194 128.849 30.1764 128.542 30.2311V30.2515C128.972 30.3062 129.327 30.47 129.607 30.7431C129.894 31.0162 130.037 31.378 130.037 31.8286C130.037 32.4499 129.829 32.9415 129.412 33.3033C128.996 33.6584 128.392 33.8359 127.6 33.8359H125.203ZM126.166 32.9552H127.528C128.545 32.9552 129.054 32.5796 129.054 31.8286C129.054 31.4463 128.911 31.163 128.624 30.9786C128.344 30.7943 127.904 30.7021 127.303 30.7021H126.166V32.9552ZM126.166 29.8214H127.303C127.794 29.8214 128.149 29.7395 128.368 29.5756C128.593 29.4118 128.706 29.1489 128.706 28.7871C128.706 28.0975 128.238 27.7527 127.303 27.7527H126.166V29.8214Z"
        fill="white" />
    <path
        d="M134.227 33.8359V30.9684L131.871 26.872H132.957L134.38 29.463C134.531 29.7361 134.636 29.9648 134.698 30.1491H134.718C134.78 29.9648 134.886 29.7361 135.036 29.463L136.459 26.872H137.555L135.189 30.9684V33.8359H134.227Z"
        fill="white" />
    <path
        d="M143.451 33.8359V26.8515H146.359C147.042 26.8515 147.612 27.0461 148.069 27.4353C148.527 27.8176 148.756 28.374 148.756 29.1046C148.756 29.8351 148.527 30.3949 148.069 30.7841C147.612 31.1664 147.042 31.3576 146.359 31.3576H144.884V33.8359H143.451ZM144.884 30.0058H146.154C146.496 30.0058 146.772 29.9307 146.984 29.7805C147.196 29.6303 147.301 29.405 147.301 29.1046C147.301 28.8042 147.196 28.5788 146.984 28.4286C146.772 28.2784 146.496 28.2033 146.154 28.2033H144.884V30.0058Z"
        fill="white" />
    <path
        d="M151.014 33.8359V26.8515H153.922C154.612 26.8515 155.182 27.0359 155.633 27.4046C156.09 27.7664 156.319 28.3058 156.319 29.0226C156.319 29.3913 156.244 29.7156 156.093 29.9955C155.95 30.2686 155.762 30.4803 155.53 30.6305C155.298 30.7738 155.066 30.8797 154.834 30.9479C154.602 31.0162 154.373 31.0503 154.148 31.0503V31.0606C154.291 31.1152 154.472 31.2654 154.69 31.5112L156.769 33.8359H154.865L152.468 31.0503H152.448V33.8359H151.014ZM152.448 29.8624H153.718C154.482 29.8624 154.865 29.5825 154.865 29.0226C154.865 28.4764 154.482 28.2033 153.718 28.2033H152.448V29.8624Z"
        fill="white" />
    <path
        d="M164.755 32.9244C164.072 33.6072 163.215 33.9485 162.184 33.9485C161.153 33.9485 160.293 33.6072 159.603 32.9244C158.921 32.2349 158.579 31.3746 158.579 30.3437C158.579 29.3128 158.921 28.456 159.603 27.7732C160.293 27.0837 161.153 26.7389 162.184 26.7389C163.215 26.7389 164.072 27.0837 164.755 27.7732C165.444 28.456 165.789 29.3128 165.789 30.3437C165.789 31.3746 165.444 32.2349 164.755 32.9244ZM160.648 28.7461C160.238 29.1694 160.034 29.7019 160.034 30.3437C160.034 30.9855 160.238 31.518 160.648 31.9413C161.065 32.3646 161.577 32.5762 162.184 32.5762C162.792 32.5762 163.3 32.3646 163.71 31.9413C164.127 31.518 164.335 30.9855 164.335 30.3437C164.335 29.7019 164.127 29.1694 163.71 28.7461C163.3 28.3228 162.792 28.1112 162.184 28.1112C161.577 28.1112 161.065 28.3228 160.648 28.7461Z"
        fill="white" />
    <path d="M169.307 33.8359V28.2033H167.136V26.8515H172.912V28.2033H170.741V33.8359H169.307Z"
        fill="white" />
    <path
        d="M180.431 32.9244C179.748 33.6072 178.892 33.9485 177.861 33.9485C176.83 33.9485 175.969 33.6072 175.28 32.9244C174.597 32.2349 174.256 31.3746 174.256 30.3437C174.256 29.3128 174.597 28.456 175.28 27.7732C175.969 27.0837 176.83 26.7389 177.861 26.7389C178.892 26.7389 179.748 27.0837 180.431 27.7732C181.121 28.456 181.465 29.3128 181.465 30.3437C181.465 31.3746 181.121 32.2349 180.431 32.9244ZM176.324 28.7461C175.915 29.1694 175.71 29.7019 175.71 30.3437C175.71 30.9855 175.915 31.518 176.324 31.9413C176.741 32.3646 177.253 32.5762 177.861 32.5762C178.468 32.5762 178.977 32.3646 179.387 31.9413C179.803 31.518 180.011 30.9855 180.011 30.3437C180.011 29.7019 179.803 29.1694 179.387 28.7461C178.977 28.3228 178.468 28.1112 177.861 28.1112C177.253 28.1112 176.741 28.3228 176.324 28.7461Z"
        fill="white" />
    <path
        d="M183.917 33.8359V26.8515H185.064L188.249 30.8967C188.365 31.0333 188.474 31.2005 188.576 31.3985H188.587C188.573 31.2688 188.566 31.0537 188.566 30.7533V26.8515H190V33.8359H188.853L185.668 29.7907C185.552 29.6542 185.443 29.4869 185.34 29.2889H185.33C185.344 29.4186 185.351 29.6337 185.351 29.9341V33.8359H183.917Z"
        fill="white" />
    <path
        d="M14.5063 0H14.4999L14.519 0.00637074H14.5127L14.5063 0ZM55.9674 0.00637074H14.4999L13.9775 0.547883L13.8883 0.643444C13.487 1.05754 13.0729 1.4589 12.6588 1.83477C9.49885 4.79079 5.67 6.92499 1.50988 8.05898C1.38883 8.09721 1.27416 8.12269 1.15311 8.15454L0.630708 8.28196L0.509663 8.80436C0.465068 8.99548 0.433214 9.1866 0.388618 9.3841C0.133787 10.7347 0 12.098 0 13.4741C0 22.0746 5.08389 29.866 12.9518 33.3317C13.041 33.3763 13.1429 33.4209 13.2385 33.4591C13.4551 33.5547 13.6717 33.6439 13.8883 33.7331L14.1495 33.8286H14.1878H14.2069C14.226 33.835 14.2515 33.8414 14.2706 33.835H55.961C56.8593 33.835 57.5856 33.1087 57.5856 32.2104V1.62454C57.5856 0.739005 56.8784 0.0127415 55.9929 0.0127415C55.9865 0.0127415 55.9738 0.0127415 55.9674 0.0127415V0.00637074ZM53.1515 2.60563L35.7975 17.7361C35.4407 18.0419 34.9119 18.0419 34.5552 17.7298L28.8979 12.716C28.8724 11.5119 28.745 10.3079 28.5093 9.1229C28.4902 9.02733 28.4711 8.9254 28.4583 8.8171L28.3373 8.2947L27.8149 8.15454C27.6875 8.12906 27.56 8.09084 27.4326 8.06535C24.5467 7.27538 21.82 5.99486 19.3736 4.27476L17.5006 2.61837H53.1579L53.1515 2.60563ZM29.7898 16.8825L28.3628 18.1439C28.5284 17.424 28.6558 16.6977 28.745 15.9587L29.7898 16.8825ZM14.226 31.9938C13.6972 31.7772 13.1684 31.5351 12.6524 31.2739C5.98217 27.8401 1.77745 20.9852 1.7456 13.4805C1.7456 12.2191 1.86664 10.9577 2.10873 9.71537C5.96943 8.67694 9.56256 6.8358 12.6524 4.30025C13.2958 3.78422 13.9138 3.22996 14.5063 2.65023C17.4177 5.49157 20.9153 7.67037 24.7442 9.0337C25.4322 9.28853 26.1266 9.50514 26.8465 9.69626C26.923 10.1486 26.9994 10.6073 27.044 11.0723C27.1268 11.8177 27.1714 12.5631 27.1714 13.3085C27.1714 13.7162 27.1651 14.1239 27.1268 14.5316C27.0122 16.5193 26.5917 18.4751 25.8845 20.3354C23.8522 25.7187 19.6029 29.9616 14.2196 31.9938H14.226ZM19.2844 31.3249C22.336 29.2735 24.8206 26.4832 26.5025 23.215L31.7074 18.6153L34.5297 21.1445C34.8865 21.4566 35.4216 21.4566 35.7784 21.1445L38.658 18.5898L53.1069 31.3058L19.2844 31.3249ZM40.6265 16.8761L55.0882 4.02631L55.1137 29.6494L40.6265 16.8761ZM18.1313 27.1712C18.8193 26.6679 19.4628 26.1009 20.0489 25.4766L18.1313 27.1712ZM24.5721 12.2764C24.5275 11.9133 24.4766 11.5565 24.4065 11.187C23.8331 11.0341 23.2725 10.8494 22.7246 10.6455C22.7246 10.6455 22.7182 10.6455 22.7182 10.6391C22.5717 10.5945 22.4379 10.5308 22.2914 10.4735C21.9792 10.3461 21.6543 10.2123 21.3421 10.0594C21.1255 9.96383 20.8962 9.8619 20.6796 9.74723C20.5267 9.67715 20.3674 9.59433 20.2081 9.50514C19.7112 9.24394 19.2207 8.95088 18.7429 8.64509C18.4434 8.46034 18.1504 8.26285 17.8764 8.06535C17.851 8.05898 17.8318 8.03987 17.8127 8.02076C17.5069 7.81052 17.2075 7.58755 16.9081 7.3582C16.3156 6.90588 15.7486 6.42807 15.1943 5.91841C14.9586 5.70818 14.7229 5.49158 14.4999 5.2686C13.9074 5.84197 13.2958 6.38985 12.6524 6.91862C10.2761 8.89992 7.50479 10.3652 4.52963 11.2189C4.33851 12.2191 4.24295 13.232 4.24295 14.2513C4.26206 20.1825 7.47931 25.6422 12.6588 28.5345C13.1812 28.8212 13.7227 29.0824 14.2769 29.3054C14.6019 29.178 14.9268 29.0442 15.2453 28.8977C15.2517 28.8977 15.258 28.8977 15.2644 28.8913C15.5256 28.7702 15.7868 28.6492 16.0417 28.509C16.2774 28.388 16.5067 28.2606 16.7297 28.1204C16.8061 28.0822 16.8762 28.0376 16.9463 27.993C17.0674 27.9229 17.182 27.8465 17.2903 27.7764C17.3158 27.7637 17.3413 27.7446 17.3604 27.7254C17.5643 27.598 17.7618 27.4642 17.9529 27.3177C18.023 27.2795 18.0803 27.2349 18.1376 27.1776L20.0553 25.4829C20.0553 25.4829 20.0744 25.4829 20.0744 25.4766C21.992 23.4889 23.3744 21.0489 24.1007 18.3796C24.4893 16.9844 24.6804 15.551 24.6804 14.1048C24.6804 13.4996 24.6422 12.888 24.5721 12.2892V12.2764ZM15.2262 21.5841L13.7482 23.0621H13.7418L7.63221 16.9525L9.50522 15.0604L13.7482 19.3033L15.2262 17.8253L20.3802 12.665L22.2659 14.5508L15.2262 21.5904V21.5841Z"
        fill="white" />
    <path d="M144.527 17.7774H135.962V1.27161H137.895V16.0286H144.527V17.7825V17.7774Z" fill="white" />
    <path
        d="M151.731 18.0535C150.167 18.1251 148.648 17.5217 147.559 16.4019C146.48 15.2054 145.923 13.6305 145.999 12.0198C145.999 10.0409 146.541 8.49668 147.62 7.38198C148.786 6.2366 150.376 5.63323 152.008 5.71504C153.552 5.62811 155.055 6.22126 156.124 7.33596C157.111 8.41998 157.602 9.91819 157.607 11.8408C157.689 13.4975 157.116 15.1184 156.011 16.3558C154.897 17.5115 153.337 18.1302 151.731 18.0535ZM151.87 7.30528C150.77 7.25415 149.712 7.71435 148.991 8.5427C148.239 9.51423 147.861 10.7261 147.932 11.9584C147.866 13.1549 148.249 14.331 149.006 15.2616C149.732 16.0746 150.78 16.5144 151.87 16.4735C152.943 16.5348 153.981 16.1002 154.687 15.2872C155.347 14.4946 155.674 13.3697 155.674 11.9124C155.674 10.4397 155.347 9.30459 154.687 8.50691C153.992 7.68878 152.948 7.24392 151.875 7.30528H151.87Z"
        fill="white" />
    <path
        d="M170.682 16.8314C170.682 21.1624 168.611 23.3253 164.469 23.3253C163.144 23.356 161.835 23.0697 160.644 22.497V20.6102C161.795 21.2953 163.104 21.6737 164.443 21.7146C167.343 21.7146 168.795 20.1704 168.795 17.0871V15.7985H168.749C167.363 18.0382 164.423 18.7285 162.183 17.3427C161.805 17.1075 161.457 16.8212 161.155 16.4888C160.209 15.2923 159.734 13.7941 159.816 12.2703C159.816 10.2659 160.296 8.67568 161.263 7.4945C162.229 6.31333 163.692 5.65371 165.215 5.72018C166.657 5.64348 168.023 6.3798 168.749 7.63256H168.795V5.9963H170.682V16.8365V16.8314ZM168.795 12.4442V10.7057C168.81 9.81083 168.467 8.94668 167.844 8.3024C167.235 7.64279 166.371 7.27974 165.476 7.30019C164.413 7.25417 163.39 7.7246 162.735 8.57341C162.02 9.61653 161.672 10.8693 161.749 12.1374C161.692 13.2674 162.025 14.377 162.7 15.2872C163.303 16.0593 164.239 16.4939 165.215 16.4633C166.202 16.4939 167.153 16.0798 167.798 15.3332C168.483 14.5304 168.836 13.4975 168.795 12.4442Z"
        fill="white" />
    <path
        d="M175.473 2.99482C175.151 2.99993 174.839 2.87722 174.609 2.64712C174.133 2.15624 174.133 1.37901 174.609 0.89325C174.839 0.663151 175.151 0.535318 175.473 0.540431C175.8 0.535318 176.117 0.663151 176.352 0.89325C176.833 1.36879 176.838 2.14601 176.363 2.62666C176.363 2.62666 176.358 2.63178 176.352 2.63689C176.122 2.8721 175.805 2.99993 175.473 2.99482ZM176.393 17.7774H174.506V5.99122H176.393V17.7825V17.7774Z"
        fill="white" />
    <path
        d="M190 17.7774H188.113V11.0534C188.113 8.55298 187.198 7.30022 185.372 7.30022C184.472 7.27976 183.608 7.67349 183.03 8.36379C182.396 9.11544 182.069 10.0716 182.105 11.0534V17.7774H180.218V5.99121H182.105V7.94961H182.151C182.913 6.53322 184.411 5.66907 186.022 5.71509C187.147 5.6435 188.246 6.10881 188.977 6.96274C189.657 7.79621 190 8.99784 190 10.5727V17.7774Z"
        fill="white" />
    <path
        d="M64.7483 17.1076V14.827C65.0346 15.0725 65.3517 15.2821 65.6891 15.4509C66.0573 15.6349 66.4459 15.7935 66.8396 15.9162C67.2385 16.044 67.6424 16.1412 68.0515 16.2076C68.4248 16.2741 68.8032 16.3048 69.1816 16.3099C70.1173 16.3764 71.0531 16.1463 71.8456 15.6503C72.7405 14.8935 72.9808 13.6152 72.4337 12.5823C72.2189 12.2346 71.9479 11.9278 71.6206 11.6772C71.2371 11.3807 70.8281 11.1199 70.3934 10.8949C69.9179 10.6444 69.4168 10.3836 68.8645 10.1075C68.2867 9.81599 67.7498 9.51942 67.2538 9.22285C66.7834 8.94673 66.3488 8.61436 65.955 8.23598C65.592 7.88316 65.3005 7.46898 65.0858 7.00878C64.8659 6.50257 64.7585 5.95544 64.7687 5.4032C64.7534 4.71802 64.9221 4.03795 65.2647 3.43969C65.592 2.88745 66.0317 2.41703 66.5635 2.06421C67.126 1.69094 67.7447 1.41993 68.3992 1.26142C69.0844 1.08245 69.7901 0.995527 70.5008 1.00064C72.1269 1.00064 73.3132 1.19495 74.0546 1.58867V3.76183C72.9399 3.04597 71.6257 2.69315 70.3014 2.74939C69.877 2.74939 69.4526 2.79541 69.0333 2.88234C68.6344 2.95904 68.256 3.10733 67.9032 3.31186C67.5811 3.50616 67.305 3.76694 67.1004 4.08397C66.8857 4.42656 66.7783 4.83051 66.7885 5.23447C66.7783 5.61285 66.8601 5.98612 67.0237 6.32871C67.1976 6.65597 67.4328 6.94231 67.7191 7.1673C68.0668 7.44853 68.4452 7.69397 68.8441 7.90361C69.2838 8.14394 69.7952 8.40472 70.373 8.68595C70.9661 8.97741 71.5235 9.28421 72.0553 9.60635C72.5564 9.90803 73.0268 10.2711 73.4461 10.6801C73.8347 11.0585 74.1569 11.4983 74.3972 11.9789C74.6375 12.4903 74.7602 13.0476 74.75 13.6152C74.7705 14.331 74.6068 15.0469 74.2745 15.681C73.9626 16.2383 73.5228 16.7087 72.9859 17.0564C72.4132 17.4246 71.7792 17.6854 71.1144 17.8234C70.3832 17.982 69.6315 18.0638 68.8799 18.0587C68.5577 18.0587 68.2356 18.0331 67.9134 17.9973C67.5299 17.9564 67.1362 17.895 66.7374 17.8132C66.3539 17.7365 65.9755 17.6343 65.6022 17.5115C65.3005 17.4246 65.0091 17.2917 64.7432 17.1178L64.7483 17.1076ZM78.7589 2.98972C78.4367 2.99483 78.1248 2.87211 77.8947 2.64201C77.4192 2.15114 77.4192 1.37391 77.8947 0.888148C78.1248 0.658049 78.4367 0.530216 78.7589 0.535329C79.0861 0.530216 79.4032 0.658049 79.6384 0.888148C80.119 1.36369 80.1242 2.14091 79.6486 2.62156C79.6486 2.62156 79.6435 2.62667 79.6384 2.63179C79.4083 2.867 79.0913 2.99483 78.7589 2.98972ZM79.6793 17.7723H77.7925V5.99123H79.6793V17.7825V17.7723ZM100.24 17.7723H98.3533V11.0023C98.3533 9.69839 98.1539 8.75242 97.7499 8.16951C97.2693 7.5508 96.5023 7.21843 95.7148 7.29513C94.8916 7.30536 94.1245 7.71442 93.6592 8.3996C93.0865 9.16149 92.79 10.0972 92.8104 11.0483V17.7723H90.9236V10.7722C90.9236 8.45585 90.0287 7.29513 88.2391 7.29513C87.426 7.2849 86.659 7.67863 86.1886 8.33825C85.621 9.1257 85.3398 10.0819 85.3858 11.0483V17.7723H83.499V5.99123H85.3858V7.85759H85.4318C86.1426 6.50257 87.5641 5.67421 89.093 5.71512C90.627 5.67932 91.9974 6.68153 92.432 8.15417C93.1377 6.63551 94.6717 5.67421 96.3489 5.71C98.9413 5.71 100.24 7.31047 100.24 10.5114V17.7825V17.7723ZM105.742 16.0645H105.696V23.1924H103.809V5.99123H105.696V8.06213H105.742C106.545 6.56904 108.125 5.65887 109.817 5.71C111.188 5.64353 112.507 6.23156 113.371 7.29513C114.276 8.51721 114.726 10.0205 114.65 11.5392C114.65 13.5129 114.169 15.0929 113.213 16.2792C112.257 17.4655 110.794 18.1251 109.275 18.0587C107.823 18.0996 106.463 17.3377 105.742 16.0747V16.0645ZM105.696 11.3091V12.9505C105.676 13.8709 106.018 14.7606 106.647 15.4304C107.956 16.7701 110.104 16.7906 111.438 15.4815C111.551 15.3742 111.653 15.2566 111.745 15.1338C112.451 14.0549 112.793 12.7715 112.717 11.4829C112.783 10.3785 112.461 9.28932 111.812 8.39449C111.213 7.65306 110.298 7.23888 109.347 7.27468C108.335 7.23888 107.363 7.65817 106.698 8.42006C106.018 9.22285 105.66 10.2455 105.696 11.2989V11.3091ZM119.553 17.7723H117.666V0.325684H119.553V17.7774V17.7723ZM132.853 12.3471H124.529C124.488 13.4567 124.866 14.5458 125.592 15.3895C126.323 16.1309 127.341 16.5195 128.379 16.4633C129.714 16.4633 131.007 15.998 132.04 15.1492V16.9235C130.823 17.7263 129.386 18.12 127.929 18.0535C126.446 18.1302 125.009 17.5422 124.002 16.448C123.051 15.3793 122.575 13.8709 122.575 11.9329C122.509 10.2966 123.066 8.69106 124.135 7.44853C125.106 6.3236 126.523 5.68955 128.006 5.71512C129.366 5.63842 130.685 6.19065 131.585 7.2082C132.429 8.2053 132.853 9.59101 132.853 11.3602V12.3522V12.3471ZM130.92 10.7466C130.966 9.83133 130.69 8.93139 130.133 8.20019C129.591 7.58659 128.793 7.24911 127.975 7.29513C127.121 7.27979 126.298 7.6275 125.71 8.25132C125.066 8.9365 124.662 9.81599 124.559 10.7517H130.92V10.7466Z"
        fill="white" />
</svg>